# xmcd
#
# Track frame offsets:
#	150
#	11618
#	23186
#	35685
#	46526
#	58976
#	72471
#	85020
#	97775
#	108692
#	121455
#	132826
#	144322
#	156192
#	168780
#	181260
#	192738
#	204846
#	217277
#	229120
#	240898
#	252460
#	263758
#	275715
#
# Disc length: 3846 seconds
#
# Revision: 0
# Processed by: cddbd v1.4PL0 Copyright (c) Steve Scherf et al.
# Submitted via: EasyCDDAExtractor 4.6.9.1
#
DISCID=560f0418
DTITLE=Hank Penny - And His Radio Cowboys (from 78s) Disc.2
DYEAR=1900
DGENRE=Country
TTITLE0=It Ain't Gonna Rain No Mo' 1939
TTITLE1=Yankee Doodle Dandy 1939
TTITLE2=I Like Molasses 1939
TTITLE3=Mississippi Muddle 1939
TTITLE4=Won't You Ride In My Little Red Wagon 1939
TTITLE5=Just A Message 1940
TTITLE6=Just For Old Times Sake 1940
TTITLE7=I Don't Love Anybody But You 1940
TTITLE8=Say Mister, Have You Met Rosie's Sister 1940
TTITLE9=Just Forget 1940
TTITLE10=Oh Yes, Take Another Guess 1940
TTITLE11=Peach Tree Shuffle 1940
TTITLE12=Steel Guitar Hula 1940
TTITLE13=Hawaiian Honeymoon 1940
TTITLE14=Looking For Somebody To Love 1940
TTITLE15=Tobacco State Swing 1940
TTITLE16=One Of Us Was Wrong 1940
TTITLE17=Blue Ridge Blues 1941
TTITLE18=Midnight Blues 1941
TTITLE19=Why Did I Cry 1941
TTITLE20=Army Blues 1941
TTITLE21=Off To Honolulu 1941
TTITLE22=Somebody 1941
TTITLE23=Lonesome Train Blues 1941
EXTD=
EXTT0=
EXTT1=
EXTT2=
EXTT3=
EXTT4=
EXTT5=
EXTT6=
EXTT7=
EXTT8=
EXTT9=
EXTT10=
EXTT11=
EXTT12=
EXTT13=
EXTT14=
EXTT15=
EXTT16=
EXTT17=
EXTT18=
EXTT19=
EXTT20=
EXTT21=
EXTT22=
EXTT23=
PLAYORDER=
